<?xml version="1.0" encoding="UTF-8" standalone="no"?>
<!DOCTYPE svg PUBLIC "-//W3C//DTD SVG 1.1//EN" "http://www.w3.org/Graphics/SVG/1.1/DTD/svg11.dtd">
<svg xmlns="http://www.w3.org/2000/svg" version="1.1" viewBox="0.00 0.00 1773.00 1773.00">
<style>
  path { fill: #163229; }
</style>
<path d="
  M 1730.07 1028.05
  C 1703.84 1182.72 1635.13 1327.39 1530.93 1444.45
  Q 1525.83 1450.18 1518.35 1458.69
  Q 1512.50 1465.36 1505.35 1472.54
  Q 1491.51 1486.42 1474.52 1503.27
  Q 1469.76 1507.98 1465.44 1511.53
  C 1460.01 1515.98 1455.87 1520.35 1450.96 1524.68
  C 1363.58 1601.84 1258.61 1662.04 1147.30 1696.77
  Q 1052.53 1726.35 950.96 1733.37
  Q 936.35 1734.38 924.01 1734.44
  Q 910.54 1734.51 897.08 1735.64
  C 890.28 1736.21 883.63 1735.42 877.75 1734.97
  Q 868.95 1734.29 848.02 1734.37
  Q 842.11 1734.39 834.98 1733.71
  C 823.25 1732.57 813.27 1732.14 801.77 1730.95
  C 709.09 1721.32 617.51 1697.09 532.57 1657.99
  Q 416.65 1604.64 320.69 1520.99
  Q 318.24 1518.84 307.80 1509.04
  C 302.80 1504.34 296.36 1498.92 291.33 1493.93
  Q 269.69 1472.43 264.88 1467.51
  Q 255.60 1458.00 234.65 1433.77
  Q 116.78 1297.43 65.70 1125.05
  Q 42.56 1046.95 34.44 965.80
  C 32.53 946.76 32.29 934.91 31.40 910.74
  Q 30.42 884.08 31.97 849.50
  Q 32.43 839.16 33.04 831.77
  C 36.33 791.47 41.76 751.17 50.67 712.22
  C 68.96 632.25 96.98 556.20 135.52 485.09
  Q 198.34 369.18 293.47 275.71
  Q 298.05 271.21 308.68 261.67
  C 313.69 257.18 322.58 248.82 330.22 242.23
  Q 445.37 142.96 586.30 89.54
  C 654.38 63.74 725.42 47.33 798.00 39.02
  Q 811.80 37.44 817.34 37.17
  Q 821.36 36.98 822.64 36.72
  C 824.20 36.39 827.16 35.77 829.67 35.86
  C 842.24 36.34 858.48 35.20 872.29 35.39
  C 883.79 35.55 909.90 34.93 926.94 35.63
  Q 934.09 35.92 943.87 35.89
  Q 950.54 35.87 960.73 36.89
  Q 991.71 40.00 1015.01 43.47
  Q 1138.01 61.79 1249.32 114.09
  C 1315.13 145.01 1377.22 185.28 1433.23 231.89
  Q 1446.82 243.20 1450.98 247.29
  C 1460.96 257.07 1470.35 264.76 1480.46 274.59
  Q 1498.52 292.16 1511.97 307.67
  C 1515.51 311.75 1519.76 315.36 1523.23 319.79
  Q 1526.47 323.91 1529.57 327.17
  C 1533.40 331.20 1536.44 336.10 1540.78 340.32
  Q 1542.92 342.41 1545.17 345.27
  Q 1581.13 391.26 1603.13 425.40
  Q 1704.24 582.32 1732.60 767.44
  Q 1738.35 804.95 1740.32 841.50
  Q 1740.38 842.71 1741.61 849.25
  A 11.95 11.79 -50.9 0 1 1741.81 851.31
  Q 1742.00 891.56 1741.85 928.93
  C 1741.83 933.38 1740.73 937.83 1740.40 941.99
  Q 1736.83 988.18 1730.07 1028.05
  Z
  M 80.06 761.05
  Q 75.01 791.32 71.65 826.00
  Q 70.12 841.87 70.14 857.51
  Q 70.14 859.37 69.26 867.68
  C 68.17 877.95 68.64 889.76 68.63 898.75
  C 68.62 910.07 70.31 918.09 70.17 928.73
  Q 70.11 933.76 70.62 939.77
  Q 73.86 977.59 77.44 1002.01
  Q 104.81 1188.50 212.69 1343.58
  Q 234.36 1374.74 261.75 1406.75
  C 265.25 1410.85 268.82 1414.34 272.05 1418.45
  C 275.98 1423.44 281.75 1428.89 286.02 1433.62
  C 296.96 1445.72 306.13 1455.37 317.58 1465.88
  Q 336.15 1482.91 337.71 1484.28
  C 351.92 1496.79 361.45 1505.49 374.29 1515.65
  Q 433.08 1562.21 493.71 1595.55
  Q 639.21 1675.54 807.24 1694.12
  Q 809.98 1694.42 813.77 1694.42
  Q 818.99 1694.42 820.30 1694.67
  Q 829.69 1696.50 843.24 1696.16
  Q 848.17 1696.04 855.45 1697.47
  C 857.75 1697.92 859.51 1698.00 861.77 1698.02
  Q 885.75 1698.14 920.25 1698.01
  C 924.35 1698.00 926.41 1697.36 931.09 1696.43
  A 9.95 9.86 -49.5 0 1 933.39 1696.24
  Q 938.75 1696.38 947.78 1696.23
  C 953.51 1696.14 957.87 1694.79 963.63 1694.66
  Q 968.72 1694.55 975.55 1693.83
  Q 1058.76 1684.99 1134.62 1660.61
  Q 1284.73 1612.36 1408.21 1510.96
  Q 1421.17 1500.32 1439.55 1483.21
  C 1441.75 1481.16 1444.56 1479.00 1446.34 1477.33
  Q 1470.67 1454.44 1490.65 1432.39
  Q 1497.58 1424.74 1505.72 1415.70
  Q 1514.32 1406.15 1523.71 1394.47
  Q 1568.06 1339.27 1602.31 1278.58
  Q 1672.58 1154.04 1694.69 1011.90
  Q 1695.86 1004.34 1698.09 989.50
  Q 1700.17 975.63 1700.70 967.00
  Q 1701.15 959.74 1701.76 953.32
  Q 1702.83 942.15 1702.90 939.65
  Q 1703.20 929.20 1703.75 921.50
  Q 1705.69 893.91 1703.90 864.83
  Q 1703.23 854.00 1703.17 848.65
  Q 1703.05 838.17 1702.02 832.52
  C 1701.08 827.40 1701.39 821.44 1700.89 816.38
  C 1683.97 645.71 1614.62 485.84 1503.08 355.88
  C 1494.44 345.81 1486.33 337.73 1477.97 328.27
  C 1461.09 309.17 1443.41 293.18 1423.29 275.49
  C 1361.31 220.96 1289.42 174.98 1213.24 141.07
  C 1136.23 106.78 1052.92 85.49 968.50 76.50
  Q 967.08 76.35 950.67 75.39
  C 946.94 75.17 942.22 74.01 939.25 74.04
  Q 914.02 74.31 886.51 72.80
  Q 884.23 72.68 876.22 73.28
  C 864.94 74.12 853.76 74.12 842.07 74.08
  A 12.03 11.62 -49.9 0 0 839.47 74.35
  C 830.98 76.16 821.35 75.55 812.88 76.44
  Q 728.97 85.24 655.10 107.33
  Q 585.22 128.23 517.27 163.01
  Q 431.84 206.73 361.73 266.23
  Q 354.77 272.14 353.17 273.67
  C 346.14 280.39 339.30 285.60 332.10 292.63
  Q 315.31 309.02 297.66 326.91
  Q 287.49 337.22 280.12 345.88
  C 276.71 349.90 272.53 353.83 269.42 358.12
  Q 267.82 360.34 262.64 366.01
  Q 260.62 368.22 255.93 373.97
  C 164.55 485.76 103.80 618.79 80.06 761.05
  Z"
/>
<path d="
  M 1011.45 702.25
  Q 1033.82 680.36 1053.70 659.71
  Q 1061.73 651.37 1068.42 641.46
  C 1074.34 632.70 1078.41 620.80 1071.72 611.35
  C 1069.72 608.53 1066.66 606.85 1063.06 604.39
  A 6.68 6.64 -0.2 0 1 1061.41 602.76
  Q 1054.78 593.43 1062.69 584.44
  C 1065.32 581.44 1069.78 579.15 1074.31 576.88
  C 1097.21 565.34 1124.28 565.12 1143.53 583.73
  Q 1145.98 586.10 1147.29 588.87
  A 1.37 1.37 0.0 0 0 1149.43 589.31
  C 1154.13 585.22 1158.77 580.87 1164.29 577.50
  C 1177.81 569.24 1196.24 564.10 1210.67 574.88
  Q 1222.92 584.04 1223.73 599.99
  Q 1224.32 611.55 1220.20 620.49
  Q 1216.97 627.51 1214.31 633.01
  A 1.36 1.35 23.1 0 0 1215.06 634.87
  C 1241.52 644.70 1257.99 671.39 1257.82 699.27
  Q 1257.79 704.30 1257.09 708.25
  C 1256.16 713.52 1255.36 719.80 1252.59 724.84
  C 1249.05 731.26 1240.26 734.17 1234.19 729.28
  Q 1233.40 728.64 1230.45 725.03
  C 1212.41 702.94 1184.59 704.39 1161.26 715.82
  C 1139.62 726.43 1123.13 741.57 1105.13 758.37
  C 1096.57 766.36 1086.22 778.83 1076.61 787.85
  Q 1075.28 789.10 1074.81 791.24
  A 0.78 0.77 -79.8 0 0 1075.45 792.17
  Q 1086.35 793.81 1097.57 795.64
  Q 1117.88 798.97 1139.50 807.00
  C 1171.35 818.84 1199.21 836.08 1226.33 857.68
  C 1239.20 867.92 1251.85 879.16 1261.93 891.58
  C 1265.71 896.24 1269.47 899.98 1273.09 904.79
  C 1283.49 918.63 1293.45 932.78 1301.27 947.97
  Q 1311.80 968.44 1323.11 993.13
  Q 1324.13 995.37 1329.10 1004.39
  C 1339.02 1022.38 1352.40 1039.05 1371.34 1047.37
  C 1374.07 1048.56 1380.01 1050.03 1381.83 1046.83
  Q 1383.91 1043.19 1385.76 1040.51
  C 1406.78 1010.21 1450.99 1017.44 1466.28 1048.99
  C 1473.77 1064.44 1475.14 1081.97 1468.73 1098.29
  C 1458.19 1125.12 1433.80 1140.70 1405.45 1143.31
  C 1391.06 1144.63 1373.81 1141.20 1359.16 1137.09
  A 1.93 1.92 -81.6 0 0 1356.72 1138.91
  Q 1356.06 1175.42 1350.28 1211.06
  Q 1336.85 1293.98 1288.41 1362.65
  Q 1274.25 1382.72 1255.42 1403.42
  Q 1245.02 1414.86 1238.80 1420.30
  C 1228.80 1429.02 1222.34 1435.10 1212.89 1442.32
  Q 1150.83 1489.80 1073.88 1505.88
  Q 1030.95 1514.85 986.46 1516.57
  A 0.75 0.75 0.0 0 0 985.81 1517.66
  Q 987.86 1521.79 990.91 1525.14
  Q 997.28 1532.13 1000.96 1535.79
  Q 1013.22 1547.94 1027.81 1556.19
  Q 1035.57 1560.58 1050.03 1567.23
  C 1057.23 1570.54 1063.59 1577.18 1059.59 1585.63
  Q 1056.94 1591.23 1051.08 1593.06
  Q 1031.37 1599.22 1012.50 1600.98
  C 999.53 1602.18 994.43 1603.04 984.58 1602.54
  C 975.43 1602.08 964.44 1601.18 954.55 1599.23
  Q 926.14 1593.62 903.46 1576.71
  C 894.85 1570.29 886.70 1561.61 879.00 1553.32
  A 1.40 1.39 43.5 0 0 876.91 1553.37
  C 859.29 1574.20 837.41 1590.43 810.76 1597.50
  Q 791.59 1602.59 763.46 1601.00
  Q 738.01 1599.56 713.01 1594.20
  C 709.27 1593.40 704.91 1592.21 702.55 1589.45
  C 697.53 1583.59 697.72 1576.02 703.03 1570.43
  Q 704.53 1568.86 710.07 1566.39
  Q 718.15 1562.79 723.16 1560.36
  C 753.69 1545.51 774.92 1520.20 788.99 1489.55
  A 1.78 1.78 0.0 0 0 787.76 1487.07
  Q 786.91 1486.88 785.12 1486.19
  Q 781.34 1484.74 762.19 1476.27
  C 726.03 1460.29 692.02 1439.22 660.95 1414.74
  C 652.90 1408.40 642.91 1399.06 634.79 1392.03
  Q 631.70 1389.37 624.60 1382.30
  Q 602.56 1360.38 598.09 1355.58
  Q 591.53 1348.55 554.07 1305.15
  Q 544.68 1294.29 541.07 1290.35
  C 535.14 1283.90 530.28 1277.91 523.96 1271.15
  Q 508.77 1254.88 505.93 1251.98
  C 483.43 1229.01 457.08 1207.17 426.68 1195.60
  A 1.86 1.86 0.0 0 0 424.33 1196.56
  C 418.47 1209.28 406.33 1215.73 393.05 1219.04
  Q 382.78 1221.60 371.46 1219.34
  C 354.05 1215.85 338.90 1206.02 330.41 1190.36
  Q 322.75 1176.25 322.89 1162.21
  C 323.10 1141.11 334.78 1121.74 352.69 1110.36
  C 376.88 1094.99 403.85 1092.51 432.75 1096.96
  Q 451.58 1099.86 471.13 1108.36
  C 505.41 1123.26 535.18 1142.69 564.77 1166.19
  Q 565.20 1166.54 565.53 1166.61
  A 1.33 1.32 -79.9 0 0 567.12 1165.50
  Q 567.43 1163.32 567.43 1160.50
  Q 567.18 819.36 567.57 576.27
  Q 567.62 546.50 567.38 512.27
  Q 567.28 498.22 562.97 486.00
  C 558.17 472.40 542.78 465.19 531.45 477.28
  C 517.57 492.08 524.42 515.46 536.00 529.01
  C 538.70 532.17 543.13 535.80 545.35 539.29
  Q 551.30 548.67 542.90 557.67
  A 2.83 2.78 7.3 0 1 542.11 558.27
  Q 538.03 560.37 523.56 568.79
  Q 497.94 583.70 487.70 609.91
  Q 484.52 618.04 481.99 632.91
  C 480.46 641.90 477.48 659.97 474.33 671.43
  C 466.60 699.55 451.84 726.86 429.10 745.35
  C 402.55 766.94 371.26 776.64 337.60 770.05
  C 320.59 766.72 305.17 756.81 296.20 741.91
  C 288.64 729.35 287.35 712.42 291.59 698.82
  C 297.16 680.92 310.17 669.43 328.54 665.79
  Q 337.00 664.11 343.27 665.50
  C 349.95 666.98 357.18 669.36 364.21 672.63
  A 1.82 1.81 40.9 0 0 365.94 672.51
  C 373.24 667.86 378.41 659.68 381.26 651.96
  C 388.89 631.28 390.53 606.58 387.80 585.48
  Q 386.42 574.81 382.02 550.74
  C 378.71 532.62 399.08 536.24 409.62 533.13
  C 434.15 525.89 438.98 494.20 418.32 479.11
  Q 414.52 476.34 404.84 473.28
  Q 400.89 472.04 390.88 468.36
  C 347.09 452.28 316.91 410.39 332.55 362.81
  C 343.95 328.13 380.33 310.38 414.96 320.53
  C 441.66 328.36 455.46 360.04 439.58 384.08
  Q 436.15 389.27 434.63 391.59
  A 0.46 0.46 0.0 0 0 434.98 392.30
  C 440.32 392.74 447.71 394.44 454.41 394.06
  Q 492.42 391.92 523.04 373.49
  Q 545.24 360.13 562.60 344.83
  C 577.63 331.59 581.61 328.03 594.22 316.64
  Q 612.64 300.00 634.09 284.34
  C 674.23 255.07 720.39 242.47 770.01 247.96
  Q 801.72 251.47 826.64 270.93
  A 0.99 0.99 0.0 0 0 828.05 270.74
  Q 845.20 247.74 859.22 223.21
  Q 863.08 216.45 865.50 214.90
  Q 870.03 211.99 875.63 213.66
  C 880.84 215.22 883.20 219.66 885.14 225.17
  Q 888.73 235.34 890.98 241.26
  C 904.44 276.73 925.39 308.03 954.72 331.02
  C 964.46 338.66 977.26 345.68 987.36 351.90
  C 996.66 357.62 1005.86 365.95 1010.76 375.46
  Q 1013.05 379.90 1014.65 383.27
  A 3.91 3.90 77.3 0 0 1018.18 385.51
  Q 1136.80 385.64 1257.25 385.50
  Q 1262.10 385.49 1273.29 384.28
  Q 1282.95 383.24 1289.16 381.81
  C 1320.36 374.59 1346.58 355.96 1367.00 331.24
  Q 1370.85 326.58 1377.37 324.62
  Q 1382.51 323.08 1387.41 325.59
  C 1395.45 329.72 1396.74 335.68 1396.69 344.00
  Q 1396.50 383.31 1396.70 464.72
  Q 1396.73 474.01 1395.46 476.58
  C 1391.85 483.87 1382.50 482.30 1376.54 482.83
  C 1368.16 483.57 1360.75 486.62 1355.54 493.27
  C 1348.03 502.86 1349.26 515.08 1356.88 524.34
  C 1363.34 532.20 1374.92 535.76 1384.86 536.75
  C 1393.33 537.60 1399.59 541.30 1397.58 551.28
  Q 1394.34 567.37 1391.96 580.69
  Q 1386.27 612.52 1394.36 643.61
  C 1396.92 653.41 1402.28 663.74 1409.97 670.66
  C 1413.67 673.99 1416.01 673.37 1420.57 671.20
  C 1461.87 651.58 1497.16 691.75 1484.39 731.54
  Q 1477.33 753.55 1456.15 764.21
  C 1444.27 770.18 1432.84 771.84 1419.14 772.07
  C 1382.03 772.70 1348.22 751.79 1329.68 719.92
  Q 1320.56 704.25 1315.18 687.17
  C 1311.81 676.45 1308.15 662.80 1306.18 649.75
  C 1304.34 637.59 1301.90 623.42 1297.80 610.93
  Q 1288.35 582.16 1263.50 568.27
  Q 1256.48 564.34 1245.04 559.75
  Q 1237.95 556.91 1236.21 554.90
  Q 1232.93 551.14 1233.43 545.15
  C 1234.13 536.79 1242.35 532.85 1247.59 528.10
  C 1254.70 521.66 1258.63 512.54 1257.99 502.95
  C 1256.26 476.98 1224.53 471.99 1204.51 470.73
  C 1169.75 468.55 1133.93 471.84 1101.75 483.37
  Q 1085.66 489.13 1074.86 494.66
  C 1050.72 507.00 1031.11 526.93 1020.59 552.37
  Q 1013.20 570.23 1010.97 589.18
  Q 1009.96 597.72 1010.25 627.34
  Q 1010.54 657.46 1010.41 701.81
  A 0.61 0.61 0.0 0 0 1011.45 702.25
  Z
  M 1366.30 376.02
  Q 1365.69 376.21 1364.96 376.71
  C 1360.53 379.80 1354.40 384.92 1349.94 388.00
  Q 1322.35 407.05 1289.04 413.21
  C 1281.57 414.59 1272.65 415.09 1265.25 415.09
  Q 1217.02 415.08 1001.25 415.10
  Q 999.63 415.10 995.04 414.82
  A 2.83 2.81 -29.0 0 1 993.91 414.50
  C 990.34 412.57 989.22 410.77 988.29 406.39
  Q 984.03 386.27 966.27 375.21
  Q 948.70 364.26 944.04 361.21
  Q 912.02 340.32 890.65 307.10
  Q 878.89 288.81 868.77 268.51
  A 1.19 1.18 49.6 0 0 866.75 268.34
  Q 850.18 291.21 848.51 293.48
  Q 846.90 295.68 847.51 297.51
  Q 848.72 301.19 850.18 304.81
  C 854.95 316.69 855.93 330.20 853.40 342.39
  C 847.41 371.32 822.86 390.76 793.02 389.55
  C 787.40 389.32 781.99 387.36 776.51 385.99
  Q 774.55 385.49 772.96 386.20
  C 764.56 389.94 761.34 396.48 756.07 405.04
  Q 752.70 410.51 746.79 411.34
  C 733.39 413.23 719.66 413.33 705.00 413.77
  C 699.42 413.95 693.97 415.29 692.84 421.61
  Q 689.79 438.73 690.16 456.64
  C 690.19 458.38 690.85 460.56 692.45 461.16
  Q 714.18 469.27 730.50 484.30
  Q 745.22 497.86 756.84 520.19
  Q 776.61 558.21 776.73 603.27
  Q 776.88 656.65 776.80 731.01
  A 6.74 6.73 25.8 0 0 778.28 735.25
  Q 798.75 760.87 824.31 795.43
  Q 826.14 797.90 828.81 800.93
  Q 830.99 803.42 834.05 802.55
  Q 847.54 798.73 860.91 796.32
  A 2.96 2.95 86.4 0 0 863.34 793.56
  Q 864.76 766.14 860.51 740.66
  Q 858.88 730.85 853.23 711.93
  Q 840.68 669.91 828.88 629.15
  C 818.09 591.94 810.81 566.96 803.85 534.18
  C 798.86 510.69 796.94 488.68 804.36 467.15
  Q 812.47 443.59 834.45 431.27
  Q 836.84 429.93 836.87 427.89
  C 837.29 406.26 851.46 388.13 873.53 385.40
  Q 883.45 384.17 892.40 388.92
  Q 911.58 399.09 916.98 420.80
  Q 917.93 424.59 918.81 428.32
  A 1.87 1.84 -81.2 0 0 919.64 429.47
  C 950.36 448.69 956.83 482.11 951.79 515.64
  Q 947.81 542.14 940.11 572.35
  Q 934.79 593.18 933.08 599.31
  Q 905.58 697.59 898.73 721.50
  Q 892.92 741.75 891.68 762.00
  Q 890.66 778.50 891.31 794.68
  A 1.02 1.02 0.0 0 0 892.24 795.65
  Q 911.55 797.24 925.96 809.41
  A 2.17 2.17 0.0 0 0 929.18 808.94
  Q 944.77 784.94 975.21 744.46
  Q 977.93 740.85 978.58 739.04
  Q 979.47 736.57 979.53 729.00
  Q 979.74 702.97 979.58 666.20
  C 979.56 662.21 980.04 657.01 979.85 652.41
  C 979.40 641.90 979.91 629.84 979.66 618.32
  Q 979.18 596.04 982.16 575.97
  C 988.55 532.91 1011.37 496.44 1047.90 473.41
  C 1067.80 460.87 1090.35 452.31 1113.27 447.04
  Q 1160.04 436.27 1208.75 439.95
  C 1227.22 441.35 1242.46 444.49 1258.44 453.07
  C 1277.55 463.34 1288.53 482.00 1288.90 503.38
  Q 1289.22 521.84 1276.39 538.41
  Q 1274.45 540.91 1276.91 542.27
  Q 1290.49 549.78 1301.77 560.42
  C 1316.37 574.21 1326.22 594.73 1330.20 614.58
  Q 1333.07 628.93 1336.22 647.53
  C 1342.60 685.25 1358.86 724.76 1397.72 738.17
  Q 1410.60 742.61 1422.97 742.04
  C 1440.55 741.23 1458.30 732.15 1456.08 711.82
  C 1455.11 702.89 1447.54 695.90 1438.70 696.21
  Q 1435.91 696.30 1429.66 699.70
  C 1424.15 702.70 1418.55 706.03 1412.73 706.16
  A 4.34 4.27 50.2 0 1 1411.72 706.06
  Q 1394.84 702.18 1383.63 687.61
  Q 1368.14 667.49 1363.50 642.76
  Q 1359.25 620.10 1361.19 589.98
  C 1361.63 583.13 1363.26 574.67 1364.18 567.11
  Q 1364.54 564.23 1362.07 563.14
  Q 1358.92 561.76 1356.10 560.64
  C 1341.82 554.98 1330.53 542.04 1325.12 528.38
  Q 1315.67 504.55 1327.64 481.12
  C 1334.96 466.79 1350.35 457.85 1365.44 453.94
  A 2.25 2.24 82.9 0 0 1367.13 451.76
  L 1367.13 376.64
  A 0.65 0.64 81.4 0 0 1366.30 376.02
  Z
  M 1033.99 848.05
  A 0.88 0.88 0.0 0 0 1034.30 849.10
  Q 1037.00 850.95 1040.53 851.38
  C 1080.16 856.23 1116.19 879.32 1139.33 911.08
  C 1168.53 951.18 1183.69 1000.32 1181.76 1050.51
  Q 1181.29 1062.83 1176.42 1076.89
  Q 1171.36 1091.50 1161.02 1099.91
  C 1155.17 1104.65 1145.54 1108.78 1147.40 1117.55
  C 1149.42 1127.09 1159.84 1126.13 1166.66 1123.35
  Q 1170.00 1121.99 1174.09 1118.15
  C 1182.90 1109.87 1192.16 1102.55 1204.72 1101.88
  Q 1220.01 1101.07 1228.64 1115.19
  C 1234.57 1124.91 1235.52 1138.13 1235.54 1149.50
  Q 1235.58 1177.39 1235.50 1186.85
  A 5.37 5.13 54.3 0 1 1235.32 1188.14
  L 1234.23 1192.35
  A 7.38 7.25 52.1 0 0 1233.99 1194.43
  Q 1234.14 1200.18 1233.09 1208.87
  C 1228.73 1245.02 1220.19 1278.12 1204.98 1310.45
  Q 1166.95 1391.34 1085.27 1427.21
  Q 1052.93 1441.41 1016.86 1447.08
  Q 995.59 1450.43 969.09 1451.86
  C 945.02 1453.15 919.02 1451.37 896.00 1448.00
  Q 806.88 1434.94 741.50 1377.28
  C 710.37 1349.83 686.79 1319.70 672.61 1281.13
  Q 665.44 1261.62 662.38 1237.84
  Q 660.78 1225.39 660.79 1196.08
  Q 660.88 1001.30 660.82 894.25
  Q 660.81 874.20 661.74 786.65
  C 662.01 761.44 661.35 737.12 661.73 710.93
  Q 661.87 701.31 661.89 690.75
  Q 662.10 542.70 662.17 441.75
  Q 662.17 429.20 663.08 417.79
  C 667.59 360.93 703.53 296.53 769.44 299.82
  Q 776.77 300.19 783.47 304.74
  C 786.82 307.02 792.25 313.87 789.83 317.84
  C 783.83 327.68 776.17 337.60 782.68 349.14
  C 789.61 361.43 803.51 361.81 813.97 353.35
  C 826.82 342.94 826.26 324.94 819.44 311.30
  C 808.84 290.10 786.03 280.68 763.63 278.48
  Q 755.77 277.71 743.88 278.02
  Q 720.73 278.63 699.85 285.37
  C 681.72 291.21 662.62 301.84 647.51 313.27
  Q 624.74 330.50 616.19 338.45
  Q 594.49 358.60 572.51 376.30
  C 558.05 387.95 544.12 397.15 528.63 405.14
  C 487.69 426.29 429.79 434.05 391.41 402.96
  C 385.25 397.97 383.15 391.09 386.44 383.70
  C 388.40 379.28 394.40 377.99 398.72 377.57
  C 404.63 377.00 407.77 376.31 411.34 372.84
  Q 413.92 370.32 414.78 367.12
  C 417.71 356.15 410.05 350.99 400.95 348.17
  C 393.70 345.93 383.91 349.39 378.13 353.14
  Q 362.93 363.01 359.93 380.81
  C 357.00 398.20 365.60 413.94 378.42 424.89
  Q 400.26 443.55 430.29 446.06
  Q 439.48 446.83 450.51 446.50
  C 469.53 445.93 487.24 443.72 505.16 440.22
  C 517.50 437.81 531.56 436.46 543.06 436.91
  C 555.26 437.38 568.05 441.80 576.62 449.94
  C 584.71 457.63 591.62 470.94 593.82 482.02
  Q 597.95 502.83 598.37 525.50
  Q 598.64 539.64 598.17 595.53
  C 597.97 619.18 596.79 643.89 596.79 670.60
  Q 596.77 827.19 596.80 1180.65
  C 596.80 1190.00 596.86 1195.51 592.59 1202.27
  C 586.11 1212.53 573.38 1211.58 564.63 1204.62
  C 539.33 1184.48 511.04 1163.45 481.74 1147.29
  C 452.25 1131.03 414.70 1117.86 381.67 1129.91
  C 369.95 1134.19 358.20 1142.20 354.69 1154.21
  C 349.89 1170.66 359.70 1186.69 376.47 1190.05
  Q 387.49 1192.26 395.16 1183.70
  Q 396.10 1182.65 396.45 1180.00
  A 2.72 2.68 39.2 0 0 396.31 1178.71
  C 394.15 1172.59 391.95 1167.32 397.49 1162.55
  Q 401.81 1158.84 409.58 1159.47
  Q 417.68 1160.12 424.25 1162.00
  C 452.16 1169.95 478.36 1185.78 500.78 1205.09
  C 506.48 1209.99 513.22 1215.40 519.16 1221.38
  Q 529.72 1232.02 540.74 1242.99
  C 547.71 1249.93 552.15 1256.20 559.11 1263.17
  C 562.78 1266.84 566.26 1271.73 570.43 1276.05
  Q 572.59 1278.28 575.22 1281.41
  Q 586.53 1294.87 603.66 1314.43
  C 605.97 1317.07 608.90 1319.59 610.82 1321.93
  Q 618.09 1330.78 625.28 1337.97
  Q 636.28 1348.97 645.79 1359.34
  C 649.56 1363.45 653.27 1365.78 657.20 1369.85
  Q 661.37 1374.16 665.24 1377.25
  C 672.80 1383.27 677.25 1387.56 685.80 1394.21
  C 746.54 1441.45 819.79 1474.09 895.83 1483.29
  C 908.78 1484.86 928.08 1485.81 938.50 1486.51
  Q 944.56 1486.92 982.02 1486.71
  C 987.44 1486.68 993.28 1485.13 998.70 1485.09
  Q 1005.69 1485.04 1020.38 1483.37
  Q 1045.96 1480.47 1071.44 1474.43
  C 1094.15 1469.05 1117.17 1461.38 1138.73 1450.49
  Q 1175.58 1431.87 1204.31 1407.06
  Q 1267.68 1352.31 1298.67 1272.92
  Q 1319.75 1218.93 1324.49 1165.55
  C 1326.20 1146.31 1327.23 1135.28 1327.23 1118.28
  C 1327.22 1109.43 1332.03 1099.93 1342.00 1100.36
  C 1346.37 1100.55 1352.60 1102.32 1357.27 1103.91
  Q 1367.18 1107.27 1375.39 1109.02
  C 1387.96 1111.69 1398.50 1113.50 1410.12 1111.11
  C 1430.89 1106.84 1445.87 1092.63 1441.56 1070.11
  C 1439.10 1057.25 1429.49 1048.69 1415.91 1053.00
  Q 1410.29 1054.79 1408.59 1060.12
  C 1405.17 1070.87 1403.74 1079.13 1391.86 1079.80
  C 1373.32 1080.86 1354.52 1074.69 1339.87 1064.08
  C 1322.12 1051.22 1309.12 1033.58 1298.03 1012.34
  Q 1291.24 999.33 1286.45 988.74
  Q 1279.24 972.78 1275.03 965.08
  Q 1263.48 943.98 1247.90 922.88
  Q 1245.22 919.25 1240.22 914.09
  C 1235.05 908.76 1229.28 901.30 1223.07 895.68
  C 1195.02 870.31 1162.47 847.84 1126.69 835.30
  C 1115.43 831.35 1107.75 828.65 1097.54 826.43
  Q 1084.85 823.67 1073.17 821.86
  C 1066.14 820.78 1060.97 819.78 1054.53 820.50
  A 4.89 4.89 0.0 0 0 1051.20 822.40
  Q 1042.18 834.39 1035.53 845.03
  Q 1034.58 846.55 1033.99 848.05
  Z
  M 749.09 333.41
  A 0.83 0.83 0.0 0 0 747.93 332.62
  C 729.65 340.46 715.88 354.88 706.86 372.60
  Q 705.05 376.17 702.19 382.31
  A 1.05 1.04 13.2 0 0 703.11 383.79
  Q 713.41 384.17 725.76 383.80
  C 733.58 383.56 737.96 380.71 743.03 374.47
  Q 746.69 369.97 752.15 365.43
  A 2.72 2.72 0.0 0 0 753.01 362.57
  Q 748.62 347.83 749.09 333.41
  Z
  M 877.35 682.64
  Q 879.50 678.57 881.39 672.21
  Q 892.33 635.41 909.50 571.56
  Q 913.80 555.58 918.28 534.05
  Q 922.28 514.80 922.71 495.26
  C 923.12 476.10 915.56 458.02 896.48 450.93
  Q 893.15 449.69 890.85 446.90
  A 3.39 3.38 32.4 0 1 890.18 443.90
  Q 894.02 428.77 883.86 418.50
  C 880.74 415.36 876.78 413.77 873.15 416.64
  Q 862.70 424.88 863.76 438.76
  C 864.07 442.93 865.43 445.06 863.09 448.79
  Q 862.45 449.82 859.85 451.10
  C 842.34 459.79 831.29 475.15 830.39 495.03
  Q 829.72 509.89 833.76 529.53
  Q 837.11 545.82 842.67 566.37
  Q 849.26 590.70 872.48 670.02
  Q 874.40 676.55 876.83 682.62
  A 0.29 0.28 -42.4 0 0 877.35 682.64
  Z
  M 455.82 477.53
  Q 455.79 477.89 455.92 478.31
  C 459.44 489.82 461.73 494.50 461.49 502.75
  Q 461.13 515.16 455.94 527.46
  C 448.25 545.70 434.95 555.59 416.56 562.28
  A 2.18 2.18 0.0 0 0 415.16 564.71
  Q 419.12 587.00 419.04 609.49
  C 418.93 642.38 410.22 683.73 378.78 701.39
  Q 370.53 706.02 362.31 704.00
  C 353.26 701.78 345.21 693.77 336.11 695.92
  C 319.89 699.76 315.85 716.41 324.80 729.06
  C 329.67 735.93 340.48 739.90 348.81 741.23
  C 374.41 745.31 401.34 731.81 417.49 713.85
  Q 434.12 695.37 441.83 670.82
  C 447.36 653.26 451.13 629.20 453.38 618.13
  C 458.35 593.70 470.19 571.52 489.28 554.71
  C 495.10 549.59 501.54 546.15 507.88 541.82
  A 1.74 1.74 0.0 0 0 508.28 539.33
  C 497.59 525.36 490.97 506.78 494.17 489.17
  Q 495.73 480.55 498.73 472.63
  A 0.93 0.92 -77.0 0 0 497.95 471.38
  Q 497.14 471.30 495.75 471.49
  C 487.21 472.64 479.32 474.54 470.96 474.88
  Q 463.09 475.20 457.03 476.19
  A 1.46 1.45 87.3 0 0 455.82 477.53
  Z
  M 746.74 695.09
  Q 747.06 694.71 747.06 694.16
  Q 747.50 663.07 747.20 609.55
  Q 747.17 604.15 745.67 587.73
  Q 743.15 560.11 730.70 536.71
  C 722.27 520.87 712.00 507.97 696.45 499.59
  Q 693.99 498.27 692.22 500.15
  A 1.07 1.03 67.2 0 0 691.94 500.87
  L 691.94 640.15
  A 1.99 1.98 22.9 0 0 692.51 641.54
  Q 700.71 649.78 710.53 659.71
  C 713.74 662.95 716.04 666.21 718.89 668.73
  Q 721.07 670.64 725.10 675.26
  Q 734.03 685.47 744.59 695.22
  A 1.50 1.49 41.3 0 0 746.74 695.09
  Z
  M 1131.89 641.00
  Q 1131.77 640.76 1131.79 640.24
  C 1132.15 633.35 1132.82 629.20 1132.21 623.91
  Q 1131.51 617.82 1131.22 616.79
  Q 1125.21 595.32 1101.89 597.12
  Q 1098.93 597.35 1099.78 599.80
  Q 1102.77 608.37 1105.23 618.54
  Q 1106.21 622.60 1105.22 627.99
  C 1102.79 641.32 1098.25 652.06 1090.03 663.23
  C 1072.43 687.17 1049.32 706.18 1029.59 728.40
  Q 993.35 769.20 962.38 813.87
  C 933.49 855.52 910.76 899.70 892.22 946.41
  C 884.74 965.28 877.64 986.51 870.73 1006.40
  C 870.13 1008.11 869.43 1009.61 870.68 1011.16
  Q 872.84 1013.83 877.77 1016.99
  Q 892.72 1026.58 909.86 1031.14
  Q 912.07 1031.73 915.57 1031.09
  A 1.56 1.52 12.5 0 0 916.54 1030.49
  Q 919.32 1026.70 919.86 1025.12
  C 948.95 940.56 985.81 858.37 1039.85 786.86
  Q 1049.27 774.40 1058.93 763.71
  C 1060.96 761.47 1063.07 758.30 1064.78 756.53
  Q 1082.32 738.36 1092.00 729.26
  Q 1109.62 712.69 1131.01 698.77
  Q 1141.10 692.21 1149.97 687.98
  Q 1171.29 677.80 1195.26 677.89
  C 1205.49 677.93 1214.63 681.04 1224.07 684.56
  A 1.25 1.24 -84.7 0 0 1225.73 683.18
  Q 1224.60 676.73 1219.98 671.73
  C 1212.03 663.10 1202.86 656.43 1190.74 654.73
  Q 1182.24 653.53 1175.25 653.76
  Q 1168.84 653.97 1163.63 653.46
  A 0.98 0.98 0.0 0 1 1163.00 651.83
  Q 1175.31 638.22 1186.45 623.97
  Q 1190.60 618.66 1192.84 613.12
  C 1194.40 609.24 1195.60 601.34 1191.64 598.58
  C 1185.38 594.22 1171.70 603.18 1166.59 607.34
  Q 1159.06 613.46 1155.50 617.51
  C 1146.12 628.15 1141.11 634.05 1132.92 641.19
  A 0.67 0.67 0.0 0 1 1131.89 641.00
  Z
  M 691.94 685.68
  L 691.94 753.77
  A 2.36 2.28 31.8 0 0 692.22 754.87
  Q 696.24 762.30 700.92 768.34
  Q 733.34 810.30 760.78 848.46
  C 762.36 850.65 764.42 849.41 765.91 847.68
  Q 780.88 830.34 800.35 818.13
  A 1.48 1.47 -34.1 0 0 800.76 816.02
  Q 763.68 764.69 723.17 717.76
  C 719.45 713.46 715.55 709.88 711.81 705.35
  C 705.93 698.24 699.65 691.67 692.86 685.28
  A 0.55 0.55 0.0 0 0 691.94 685.68
  Z
  M 774.01 1362.01
  A 0.80 0.80 0.0 0 0 775.20 1361.13
  Q 774.72 1359.15 773.69 1357.57
  A 3.69 3.67 -71.4 0 1 773.29 1356.76
  C 770.76 1349.17 765.79 1338.38 763.37 1331.71
  Q 753.27 1303.88 749.81 1273.59
  C 748.98 1266.33 749.10 1259.96 748.69 1253.16
  Q 748.30 1246.81 748.54 1237.84
  C 748.73 1230.55 748.32 1224.24 748.40 1216.73
  Q 748.67 1190.02 748.26 1167.97
  Q 748.15 1161.66 748.45 1153.57
  C 748.75 1145.67 747.87 1137.25 748.37 1128.37
  C 748.85 1119.78 748.07 1109.58 748.16 1101.40
  Q 748.48 1070.76 748.57 1059.25
  C 748.64 1049.69 747.24 1043.86 742.80 1036.11
  C 739.78 1030.85 735.49 1023.03 733.12 1016.84
  Q 712.44 962.98 730.13 907.77
  C 732.99 898.84 738.82 886.06 741.66 879.85
  A 2.41 2.39 -35.9 0 0 741.86 878.64
  Q 741.58 875.32 740.42 873.58
  Q 721.73 845.48 695.86 812.47
  Q 694.71 811.01 693.41 809.90
  A 0.91 0.91 0.0 0 0 691.91 810.59
  Q 691.92 832.24 690.98 858.69
  Q 690.30 877.99 690.30 906.82
  Q 690.25 1162.94 690.33 1219.50
  Q 690.34 1224.88 691.96 1235.76
  Q 696.04 1263.22 707.67 1285.82
  C 716.68 1303.32 727.73 1318.95 741.85 1333.39
  Q 753.58 1345.39 763.50 1354.30
  Q 768.44 1358.73 774.01 1362.01
  Z
  M 999.30 1046.02
  Q 984.27 1059.16 966.80 1063.03
  C 902.26 1077.36 829.37 1041.40 810.69 975.24
  Q 799.80 936.67 816.78 902.89
  C 828.27 880.03 847.67 863.25 871.96 855.66
  C 876.99 854.08 883.61 853.56 887.76 852.51
  C 896.22 850.36 898.44 841.62 898.33 833.79
  C 898.21 824.11 885.02 823.64 878.31 824.19
  C 832.73 827.92 793.68 852.78 770.88 892.16
  C 752.02 924.74 747.57 961.29 759.11 996.71
  C 774.72 1044.63 820.79 1077.74 867.40 1091.81
  C 882.84 1096.47 900.03 1100.24 915.52 1100.14
  Q 935.12 1100.02 939.25 1099.45
  Q 959.72 1096.60 974.15 1090.39
  C 985.92 1085.32 998.21 1077.73 1005.70 1067.49
  C 1009.96 1061.66 1013.79 1050.65 1006.15 1045.70
  Q 1004.23 1044.45 1000.35 1045.46
  A 2.67 2.65 16.7 0 0 999.30 1046.02
  Z
  M 1203.12 1135.24
  C 1200.27 1135.58 1196.95 1138.87 1194.48 1140.96
  C 1182.97 1150.73 1165.89 1158.34 1150.63 1155.08
  C 1125.62 1149.74 1107.05 1124.02 1119.99 1098.97
  C 1123.97 1091.26 1129.49 1086.73 1135.79 1081.54
  Q 1147.21 1072.14 1149.58 1056.54
  C 1155.19 1019.78 1144.18 980.31 1126.72 948.27
  C 1110.40 918.32 1085.62 895.43 1053.00 884.51
  Q 1043.13 881.20 1024.72 877.95
  C 1020.92 877.28 1018.56 876.52 1016.68 880.14
  Q 1013.38 886.48 1011.22 892.47
  A 9.26 8.99 56.9 0 0 1010.70 895.14
  Q 1008.52 949.25 1009.22 1008.25
  C 1009.25 1010.92 1008.87 1014.47 1011.86 1015.19
  C 1024.37 1018.20 1033.38 1024.12 1038.08 1036.51
  C 1048.13 1063.01 1031.52 1087.67 1011.04 1103.48
  A 1.64 1.59 71.6 0 0 1010.42 1104.76
  Q 1010.48 1238.21 1010.47 1251.75
  Q 1010.46 1284.13 1001.20 1314.21
  Q 983.55 1371.56 946.61 1418.77
  A 1.33 1.32 -69.5 0 0 947.58 1420.91
  C 956.35 1421.38 964.85 1421.42 975.12 1420.43
  C 987.47 1419.24 997.95 1418.67 1008.18 1417.06
  Q 1032.45 1413.24 1049.30 1408.07
  C 1109.47 1389.59 1154.09 1349.70 1179.53 1292.83
  C 1194.79 1258.69 1202.94 1221.90 1205.64 1184.11
  C 1206.47 1172.46 1206.49 1155.62 1206.35 1146.99
  Q 1206.27 1141.89 1203.97 1135.75
  A 0.80 0.79 -13.8 0 0 1203.12 1135.24
  Z
  M 839.07 969.36
  A 0.39 0.39 0.0 0 0 839.81 969.44
  C 841.59 964.97 843.63 960.64 845.31 955.31
  Q 853.71 928.63 856.85 920.86
  Q 861.68 908.91 868.65 892.59
  A 1.17 1.17 0.0 0 0 867.50 890.96
  Q 866.85 891.00 866.22 891.47
  Q 845.67 907.20 838.48 932.23
  Q 835.45 942.78 836.51 951.29
  Q 837.68 960.79 839.07 969.36
  Z
  M 978.36 956.10
  Q 978.04 956.34 977.84 956.86
  Q 963.05 995.27 948.87 1032.07
  A 0.67 0.67 0.0 0 0 949.34 1032.97
  Q 952.15 1033.66 955.76 1033.03
  C 962.85 1031.79 979.55 1027.11 979.60 1018.43
  Q 979.77 989.41 979.14 956.47
  A 0.49 0.48 -19.4 0 0 978.36 956.10
  Z
  M 780.42 1079.80
  A 1.24 1.24 0.0 0 0 778.57 1080.62
  Q 778.46 1081.14 778.46 1082.01
  Q 778.48 1249.55 778.47 1249.75
  Q 778.34 1257.47 779.12 1260.70
  C 780.61 1266.88 780.02 1271.42 781.21 1278.25
  C 788.05 1317.54 803.63 1357.93 827.66 1390.09
  C 831.79 1395.62 835.98 1401.22 842.14 1403.35
  Q 867.63 1412.19 896.99 1416.99
  C 902.26 1417.85 905.10 1417.44 908.60 1413.61
  Q 941.78 1377.27 961.34 1332.87
  Q 970.94 1311.09 975.18 1291.95
  Q 979.72 1271.41 980.24 1247.24
  Q 980.67 1227.49 980.43 1199.17
  C 980.33 1187.78 980.94 1176.17 979.91 1164.76
  C 979.62 1161.58 980.26 1156.02 980.07 1151.99
  Q 979.50 1140.42 979.41 1122.83
  A 1.44 1.44 0.0 0 0 977.90 1121.40
  Q 974.95 1121.54 972.31 1122.31
  Q 955.35 1127.23 936.05 1129.51
  C 933.96 1129.76 932.57 1130.26 932.57 1132.52
  Q 932.62 1148.72 932.59 1267.51
  C 932.58 1305.32 913.82 1341.62 889.83 1369.59
  C 885.43 1374.73 879.19 1379.00 872.49 1376.20
  Q 868.88 1374.69 863.71 1368.41
  C 838.86 1338.18 823.42 1299.60 823.40 1260.25
  Q 823.34 1168.78 823.49 1116.50
  C 823.50 1113.08 822.64 1107.55 819.74 1105.99
  Q 802.68 1096.75 786.67 1085.05
  C 784.37 1083.36 782.55 1081.06 780.42 1079.80
  Z
  M 877.95 1332.78
  Q 878.70 1332.46 879.15 1331.89
  Q 898.06 1307.91 901.47 1276.23
  Q 903.05 1261.54 903.09 1246.00
  Q 903.20 1208.02 903.09 1135.03
  Q 903.09 1133.88 902.54 1131.08
  A 1.46 1.45 -89.4 0 0 901.41 1129.92
  Q 886.82 1126.74 855.51 1120.23
  Q 852.95 1119.70 852.96 1121.95
  Q 853.18 1190.82 853.05 1248.00
  Q 853.02 1261.87 854.15 1272.76
  Q 855.56 1286.26 861.38 1303.87
  Q 866.37 1318.98 875.89 1332.21
  A 1.70 1.70 0.0 0 0 877.95 1332.78
  Z
  M 764.84 1571.06
  A 0.50 0.49 -2.2 0 0 765.29 1571.47
  C 789.07 1573.15 811.19 1568.93 830.74 1554.21
  Q 852.84 1537.57 864.89 1511.38
  A 1.46 1.45 19.0 0 0 863.90 1509.36
  L 820.82 1499.23
  A 2.92 2.91 -71.6 0 0 817.48 1500.91
  Q 805.74 1528.14 786.36 1550.08
  Q 781.94 1555.09 775.98 1560.22
  Q 766.18 1568.67 765.18 1569.93
  Q 764.75 1570.47 764.84 1571.06
  Z
  M 994.53 1570.45
  Q 992.28 1567.63 988.89 1565.10
  Q 982.35 1560.22 976.78 1554.22
  Q 964.05 1540.51 950.40 1519.83
  Q 948.20 1516.50 944.25 1516.48
  Q 930.16 1516.39 912.43 1514.89
  C 908.02 1514.51 903.55 1514.43 899.88 1514.42
  A 3.43 3.32 -35.3 0 1 898.85 1514.26
  Q 898.33 1514.09 896.18 1513.29
  A 1.73 1.72 26.6 0 0 894.13 1513.97
  Q 893.77 1514.52 894.08 1515.18
  C 902.09 1532.30 916.62 1549.84 933.70 1558.81
  Q 961.94 1573.64 994.04 1571.56
  A 0.69 0.68 69.0 0 0 994.53 1570.45
  Z"
/>
</svg>
